<?xml version="1.0" encoding="UTF-8"?><svg id="a" xmlns="http://www.w3.org/2000/svg" viewBox="0 0 31.33 31.672"><path d="M12.675,31.672H0v-.92l1.994-2.102c.46-.481.664-1.052.664-1.577V4.644c0-.569-.204-1.182-.664-1.62L0,.877v-.877h12.675v.876l-1.942,2.015c-.511.439-.716,1.227-.716,1.752v9.463h11.245V4.644c0-.569-.203-1.182-.613-1.62l-1.993-2.147v-.877h12.674v.876l-1.942,2.015c-.511.439-.715,1.227-.715,1.752v22.429c0,.57.205,1.27.715,1.709l1.942,1.972v.92h-12.674v-.92l1.993-2.103c.409-.481.613-1.052.613-1.577v-12.046h-11.245v12.046c0,.57.205,1.27.716,1.709l1.942,1.972v.92Z" fill="#c9f4aa" stroke-width="0"/></svg>