<?xml version="1.0" encoding="UTF-8"?><svg id="a" xmlns="http://www.w3.org/2000/svg" viewBox="0 0 271.696 41.945"><path d="M15.45,41.382H0v-1.185l2.431-2.706c.561-.62.81-1.353.81-2.029V6.597c0-.733-.249-1.522-.81-2.086L0,1.749V.62h15.45v1.127l-2.368,2.593c-.622.564-.872,1.579-.872,2.255v12.178h13.706V6.597c0-.733-.25-1.522-.748-2.086l-2.43-2.763V.62h15.449v1.127l-2.367,2.593c-.623.564-.873,1.579-.873,2.255v28.866c0,.733.25,1.634.873,2.198l2.367,2.537v1.185h-15.449v-1.185l2.43-2.706c.498-.619.748-1.353.748-2.029v-15.503h-13.706v15.503c0,.733.25,1.634.872,2.198l2.368,2.537v1.186Z" fill="#FFFDD0" stroke-width="0"/><path d="M68.886,31.202h1.308l-1.119,10.198h-27.357v-1.123l2.437-2.758c.556-.571.81-1.354.81-2.086v-5.534c0-5.474,4.511-7.904,10.4-8.48,2.282-.224,4.636-.12,6.062-.406-1.427-.286-3.782-.182-6.062-.406-5.89-.578-10.4-3.007-10.4-8.481v-5.534c0-.732-.254-1.516-.81-2.086l-2.437-2.758V.625h27.357l1.119,10.198h-1.308l-5.418-8.062c-.442-.673-1.063-1.013-1.938-1.013h-7.602v13.758c0,2.767,2.804,4.121,5.861,4.121h.311c.809,0,1.666-.126,2.598-.572.878-.422,2.698-2.647,2.698-2.647h1.309v9.211h-1.309s-1.819-2.227-2.698-2.647c-.932-.447-1.789-.572-2.598-.572h-.311c-3.058,0-5.861,1.354-5.861,4.12v13.758h7.602c.875,0,1.496-.341,1.938-1.014l5.418-8.062Z" fill="#FFFDD0" stroke-width="0"/><path d="M90.063,41.381h-15.45v-1.185l2.431-2.706c.561-.619.81-1.353.81-2.029V6.596c0-.733-.249-1.521-.81-2.085l-2.431-2.763V.62h20.247c7.102,0,10.653,3.156,10.653,9.641s-3.552,9.696-10.653,9.696l5.482,2.425,3.738,11.444c1.807,5.582,3.426,6.766,5.979,6.766.624,0,1.434-.057,2.119-.395v1.185c-1.62.563-4.174.563-4.61.563-7.477,0-11.214-3.044-12.896-8.118l-4.61-13.869h-3.24v15.503c0,.677.25,1.409.811,2.029l2.43,2.706v1.185ZM86.823,18.774h1.87c5.046,0,7.476-2.818,7.476-8.513s-2.43-8.513-7.476-8.513h-1.87v17.026Z" fill="#FFFDD0" stroke-width="0"/><path d="M129.527,41.382h-15.45v-1.185l2.431-2.706c.561-.62.81-1.353.81-2.029V6.597c0-.733-.249-1.522-.81-2.086l-2.431-2.762V.62h15.45v1.127l-2.368,2.593c-.622.564-.872,1.579-.872,2.255v28.866c0,.733.25,1.634.872,2.198l2.368,2.537v1.186Z" fill="#FFFDD0" stroke-width="0"/><path d="M133.283,10.825h-1.309l1.121-10.205h30.776l1.06,10.205h-1.31l-5.357-8.062c-.498-.677-1.121-1.015-1.931-1.015h-3.364v33.714c0,.677.249,1.409.748,2.029l2.492,2.706v1.185h-15.45v-1.185l2.43-2.706c.497-.619.747-1.353.747-2.029V1.748h-3.364c-.81,0-1.433.338-1.932,1.015l-5.357,8.062Z" fill="#FFFDD0" stroke-width="0"/><path d="M197.395,37.66l3.239,2.537v1.185h-15.948v-1.185l1.558-2.706c.312-.619.312-1.353.062-2.029l-2.68-8.062h-12.397l-2.679,8.062c-.249.733-.437,1.748.062,2.198l2.803,2.537v1.185h-10.342v-1.185l4.61-2.706c.873-.451,1.246-1.353,1.495-2.029l8.909-26.552c.623-1.805.561-3.045-.934-4.398l-3.303-2.763V.62h15.886v1.127l-1.495,2.593c-.373.621-.373,1.579-.124,2.255l9.655,28.866c.249.733.811,1.579,1.621,2.198ZM183.252,26.216l-5.795-17.309-5.855,17.309h11.65Z" fill="#FFFDD0" stroke-width="0"/><path d="M199.637,20.973c0-13.53,9.78-20.973,21.742-20.973,5.357,0,10.279,1.465,14.079,4.341l-3.428,8.852h-1.308c-3.053-7.16-7.601-11.444-13.021-11.444-7.164,0-11.09,5.13-11.09,11.219,0,8.287,6.542,26.892,17.881,26.892,8.036,0,10.467-9.415,7.975-17.477h-14.953v-1.184h23.612c0,15.221-10.653,20.747-20.684,20.747-11.587,0-20.807-7.385-20.807-20.972Z" fill="#FFFDD0" stroke-width="0"/><path d="M270.389,31.202h1.308l-1.119,10.198h-27.357v-1.123l2.437-2.758c.555-.571.81-1.354.81-2.086v-5.534c0-5.474,4.511-7.904,10.4-8.48,2.281-.224,4.636-.12,6.062-.406-1.427-.286-3.782-.182-6.062-.406-5.89-.578-10.4-3.007-10.4-8.481v-5.534c0-.732-.255-1.516-.81-2.086l-2.437-2.758V.625h27.357l1.119,10.198h-1.308l-5.419-8.062c-.441-.673-1.063-1.013-1.938-1.013h-7.601v13.758c0,2.767,2.804,4.121,5.861,4.121h.31c.81,0,1.666-.126,2.598-.572.879-.422,2.699-2.647,2.699-2.647h1.308v9.211h-1.308s-1.819-2.227-2.699-2.647c-.932-.447-1.788-.572-2.598-.572h-.31c-3.058,0-5.861,1.354-5.861,4.12v13.758h7.601c.875,0,1.497-.341,1.938-1.014l5.419-8.062Z" fill="#FFFDD0" stroke-width="0"/></svg>